M48
; DRILL file {KiCad 7.0.5} date Sat Apr  6 10:35:11 2024
; FORMAT={-:-/ absolute / metric / decimal}
; #@! TF.CreationDate,2024-04-06T10:35:11+04:00
; #@! TF.GenerationSoftware,Kicad,Pcbnew,7.0.5
; #@! TF.FileFunction,Plated,1,2,PTH
FMAT,2
METRIC
; #@! TA.AperFunction,Plated,PTH,ComponentDrill
T1C0.800
; #@! TA.AperFunction,Plated,PTH,ComponentDrill
T2C1.000
; #@! TA.AperFunction,Plated,PTH,ComponentDrill
T3C1.010
; #@! TA.AperFunction,Plated,PTH,ComponentDrill
T4C1.200
; #@! TA.AperFunction,Plated,PTH,ComponentDrill
T5C1.300
; #@! TA.AperFunction,Plated,PTH,ComponentDrill
T6C1.500
; #@! TA.AperFunction,Plated,PTH,ComponentDrill
T7C1.600
%
G90
G05
T1
X57.15Y158.75
X57.15Y173.99
X78.74Y153.67
X80.01Y158.75
X81.28Y153.67
X82.55Y158.75
X83.82Y153.67
X85.09Y158.75
X86.36Y153.67
X87.63Y158.75
X88.9Y153.67
X90.17Y158.75
X91.44Y153.67
X92.71Y158.75
X93.98Y153.67
X95.25Y158.75
X96.52Y153.67
T2
X31.75Y127.0
X39.25Y127.0
X50.8Y158.75
X50.8Y168.75
X69.85Y127.0
X79.85Y127.0
X82.55Y171.45
X88.9Y127.0
X92.55Y173.6
X95.25Y136.05
X95.25Y146.05
X96.4Y127.0
T3
X45.7Y176.6
X50.8Y177.8
T4
X31.75Y165.1
X39.25Y165.1
X63.5Y158.75
X63.5Y173.75
X70.5Y158.75
X70.5Y173.75
T5
X64.85Y184.15
X69.85Y184.15
T6
X44.45Y139.7
X57.15Y139.7
X69.85Y139.7
X82.55Y139.7
X107.95Y127.0
X107.95Y139.7
X107.95Y152.4
X107.95Y165.1
T7
X50.8Y152.4
X55.88Y152.4
X60.96Y152.4
X66.04Y152.4
T0
M30
